<svg width="48" height="48" fill="none" xmlns="http://www.w3.org/2000/svg"><path d="M34.61 16.385c.732.732.732 1.92 0 2.651l-12.58 12.58a1.875 1.875 0 01-2.651 0l-5.988-5.989a1.874 1.874 0 112.651-2.651l4.662 4.662 11.253-11.253a1.875 1.875 0 012.652 0zM48 24c0 13.266-10.736 24-24 24C10.734 48 0 37.264 0 24 0 10.734 10.736 0 24 0c13.266 0 24 10.736 24 24zm-3.75 0c0-11.193-9.058-20.25-20.25-20.25C12.807 3.75 3.75 12.808 3.75 24c0 11.193 9.058 20.25 20.25 20.25 11.193 0 20.25-9.058 20.25-20.25z" fill="#55B570"/></svg>