<svg width="64" height="64" fill="none" xmlns="http://www.w3.org/2000/svg"><g clip-path="url(#clip0)"><path d="M54 19.999a5.932 5.932 0 00-2 .368v-.368a19.87 19.87 0 00-3.668-11.505l5.082-5.082L50.586.584l-4.884 4.884c-7.678-7.29-19.722-7.29-27.4 0L13.412.584l-2.828 2.828 5.082 5.082A19.872 19.872 0 0012 20v.368A5.93 5.93 0 0010 20a6 6 0 00-6 6v16a6 6 0 006 6 5.935 5.935 0 002-.367V52h6v12h12V52h4v12h12V52h6v-4.368A5.99 5.99 0 0054 48a6 6 0 006-6V25.998a6 6 0 00-6-6zm-42 22a2 2 0 11-4 0V26a2 2 0 114 0v16zm14 18h-4v-8h4v8zm16 0h-4v-8h4v8zm6-12H16V24h32v24zM16 20c0-8.837 7.163-16 16-16s16 7.163 16 16H16zm40 22a2 2 0 11-4 0V26a2 2 0 114 0v16z" fill="url(#paint0_linear)"/><path d="M28 11.998h-4v4h4v-4z" fill="url(#paint1_linear)"/><path d="M40 11.998h-4v4h4v-4z" fill="url(#paint2_linear)"/></g><defs><linearGradient id="paint0_linear" x1="32" y1="0" x2="13.877" y2="58.373" gradientUnits="userSpaceOnUse"><stop stop-color="#2E9ADB"/><stop offset="1" stop-color="#55B570"/></linearGradient><linearGradient id="paint1_linear" x1="26" y1="11.998" x2="24.988" y2="15.723" gradientUnits="userSpaceOnUse"><stop stop-color="#2E9ADB"/><stop offset="1" stop-color="#55B570"/></linearGradient><linearGradient id="paint2_linear" x1="38" y1="11.998" x2="36.988" y2="15.723" gradientUnits="userSpaceOnUse"><stop stop-color="#2E9ADB"/><stop offset="1" stop-color="#55B570"/></linearGradient><clipPath id="clip0"><path fill="#fff" d="M0 0h64v64H0z"/></clipPath></defs></svg>