<svg width="64" height="64" fill="none" xmlns="http://www.w3.org/2000/svg"><g clip-path="url(#clip0)"><path d="M45.102 1.716C44.95.68 44.038-.088 42.982.008c-3.7.26-7.891 2.54-10.423 5.668-2.756 3.391-4.015 7.546-3.367 11.118a2.005 2.005 0 001.903 1.644c.108.004.212.004.32.004 3.804 0 7.863-2.128 10.423-5.487 2.616-3.408 3.803-7.503 3.264-11.239zm-6.44 8.81l-.004.005c-1.424 1.868-3.527 3.227-5.611 3.715.192-2.291 1.376-4.527 2.616-6.05 1.356-1.673 3.467-3.076 5.531-3.764-.276 2.835-1.78 5.119-2.532 6.095z" fill="url(#paint0_linear)"/><path d="M59.184 45.254a2.005 2.005 0 00-1.128-1.1c-4.064-1.567-6.791-5.327-7.107-9.814-.308-4.408 1.8-8.32 5.643-10.463a1.98 1.98 0 00.988-1.352 2.008 2.008 0 00-.392-1.632c-3.38-4.283-8.203-6.843-12.903-6.843-3.271 0-5.567.884-7.415 1.596-1.423.548-2.543.98-3.851.98-1.464 0-2.836-.5-4.423-1.076-1.928-.7-4.116-1.492-6.876-1.492-5.331 0-10.722 3.256-14.07 8.495-5.023 7.883-3.595 21.47 3.4 32.304 2.727 4.232 6.53 9.095 11.814 9.143h.104c2.188 0 3.7-.688 5.036-1.292 1.395-.632 2.711-1.232 5.079-1.248 2.248-.068 3.651.588 5.015 1.224 1.332.624 2.884 1.296 5.084 1.304 5.139-.04 8.95-4.875 12.002-9.603 1.848-2.863 2.56-4.347 3.98-7.555a1.98 1.98 0 00.02-1.576zm-7.355 6.963c-2.328 3.608-5.42 7.748-8.68 7.776-1.28-.029-2.183-.38-3.355-.928-1.544-.72-3.483-1.556-6.731-1.596-3.224.016-5.155.892-6.711 1.6-1.212.543-2.088.855-3.452.931-3.371-.032-6.307-3.919-8.49-7.31-6.94-10.751-6.928-22.442-3.392-27.985 2.62-4.1 6.719-6.647 10.698-6.647 2.056 0 3.736.612 5.52 1.256 1.78.643 3.62 1.311 5.787 1.311 2.048 0 3.695-.636 5.287-1.247 1.696-.652 3.448-1.328 5.98-1.328 2.875 0 5.863 1.356 8.294 3.703-3.915 3.06-5.987 7.715-5.623 12.87.376 5.328 3.288 9.903 7.751 12.375-.88 1.912-1.556 3.16-2.884 5.22z" fill="url(#paint1_linear)"/></g><defs><linearGradient id="paint0_linear" x1="37.127" y1="0" x2="31.923" y2="16.833" gradientUnits="userSpaceOnUse"><stop stop-color="#2E9ADB"/><stop offset="1" stop-color="#55B570"/></linearGradient><linearGradient id="paint1_linear" x1="32" y1="14.05" x2="20.322" y2="61.102" gradientUnits="userSpaceOnUse"><stop stop-color="#2E9ADB"/><stop offset="1" stop-color="#55B570"/></linearGradient><clipPath id="clip0"><path fill="#fff" d="M0 0h64v64H0z"/></clipPath></defs></svg>