<svg width="64" height="64" fill="none" xmlns="http://www.w3.org/2000/svg"><path d="M58.092 14.058c-6.718 0-12.183-5.465-12.183-12.183C45.909.839 45.069 0 44.034 0H33.992c-1.036 0-1.875.84-1.875 1.875v41.17c0 3.95-3.213 7.163-7.163 7.163s-7.162-3.213-7.162-7.162c0-3.95 3.213-7.163 7.162-7.163 1.036 0 1.875-.84 1.875-1.875V23.966c0-1.035-.84-1.875-1.875-1.875C13.4 22.091 4 31.491 4 43.046 4 54.6 13.4 64 24.954 64S45.91 54.6 45.91 43.046V24.822a25.794 25.794 0 0012.183 3.028c1.035 0 1.875-.84 1.875-1.875V15.933c0-1.035-.84-1.875-1.875-1.875zm-1.875 9.965a22.038 22.038 0 01-11.089-4.094 1.873 1.873 0 00-2.97 1.522v21.595c0 9.486-7.718 17.204-17.204 17.204S7.75 52.532 7.75 43.046c0-8.853 6.722-16.166 15.33-17.103v6.351c-5.128.892-9.038 5.373-9.038 10.752 0 6.017 4.895 10.913 10.912 10.913 6.018 0 10.913-4.896 10.913-10.913V3.75h6.401c.859 7.29 6.659 13.09 13.949 13.949v6.323z" fill="url(#paint0_linear)"/><defs><linearGradient id="paint0_linear" x1="31.983" y1="0" x2="13.851" y2="58.367" gradientUnits="userSpaceOnUse"><stop stop-color="#2E9ADB"/><stop offset="1" stop-color="#55B570"/></linearGradient></defs></svg>