<svg width="64" height="64" fill="none" xmlns="http://www.w3.org/2000/svg"><path d="M63.438 26.024a1.875 1.875 0 00-1.842-1.524H32c-1.035 0-1.875.84-1.875 1.875v11.25c0 1.035.84 1.875 1.875 1.875h15.116a17.243 17.243 0 01-4.738 5.832 1.87 1.87 0 00-.459.337c-.014.014-.027.03-.04.045C39.05 47.79 35.605 49 32 49c-9.407 0-17-7.663-17-17 0-9.34 7.597-17 17-17 3.57 0 7.069 1.212 10.118 3.504a1.875 1.875 0 002.453-.173l8-8.001a1.876 1.876 0 00-.12-2.763C46.628 2.687 39.366 0 32 0 23.499 0 15.476 3.341 9.409 9.409 3.34 15.476 0 23.498 0 32c0 8.501 3.341 16.524 9.409 22.592C15.476 60.659 23.499 64 32 64c8.501 0 16.524-3.341 22.591-9.408C60.66 48.524 64 40.502 64 32c0-2.008-.19-4.018-.562-5.976zM32 3.75c5.823 0 11.581 1.915 16.422 5.427l-5.394 5.393c-3.378-2.177-7.16-3.32-11.028-3.32-5.5 0-10.7 2.17-14.64 6.11a21.071 21.071 0 00-3.672 4.927l-5.49-5.49C13.226 8.957 22.017 3.75 32 3.75zM6.324 20.226l5.808 5.807A20.537 20.537 0 0011.25 32c0 2.047.301 4.053.882 5.967l-5.808 5.808A28.084 28.084 0 013.75 32c0-4.2.923-8.188 2.574-11.774zm1.875 26.977l5.49-5.49a21.071 21.071 0 003.67 4.927C21.3 50.58 26.5 52.75 32 52.75c3.957 0 7.753-1.13 11.069-3.28l5.44 5.44A28.096 28.096 0 0132 60.25c-9.984 0-18.776-5.207-23.801-13.047zm43.21 5.304l-5.369-5.369c2.599-2.45 4.569-5.561 5.636-8.95a1.875 1.875 0 00-1.788-2.438H33.875v-7.5h26.126c.165 1.239.249 2.495.249 3.75 0 8.067-3.4 15.355-8.841 20.507z" fill="url(#paint0_linear)"/><defs><linearGradient id="paint0_linear" x1="32" y1="0" x2="15.808" y2="59.601" gradientUnits="userSpaceOnUse"><stop stop-color="#2E9ADB"/><stop offset="1" stop-color="#55B570"/></linearGradient></defs></svg>