<svg width="64" height="64" fill="none" xmlns="http://www.w3.org/2000/svg"><path d="M1.875 52.5h20.75v7.75H17A1.875 1.875 0 0017 64h30a1.875 1.875 0 000-3.75h-5.625V52.5h20.75c1.035 0 1.875-.84 1.875-1.875V9.375c0-1.036-.84-1.875-1.875-1.875H56.5V1.875C56.5.84 55.66 0 54.625 0H9.375C8.339 0 7.5.84 7.5 1.875V7.5H1.875C.84 7.5 0 8.34 0 9.375v41.25C0 51.66.84 52.5 1.875 52.5zm35.75 7.75h-11.25V52.5h11.25v7.75zM11.25 3.75h41.5V15h-41.5V3.75zm0 15h41.5v22.5h-41.5v-22.5zm-7.5-7.5H7.5v31.875C7.5 44.16 8.34 45 9.375 45h45.25c1.035 0 1.875-.84 1.875-1.875V11.25h3.75v37.5H3.75v-37.5z" fill="url(#paint0_linear)"/><path d="M17 11.25a1.875 1.875 0 100-3.75 1.875 1.875 0 000 3.75z" fill="url(#paint1_linear)"/><path d="M24.5 11.25a1.875 1.875 0 100-3.75 1.875 1.875 0 000 3.75z" fill="url(#paint2_linear)"/><path d="M32 11.25a1.875 1.875 0 100-3.75 1.875 1.875 0 000 3.75z" fill="url(#paint3_linear)"/><path d="M45.902 31.875l2.424-2.424c.983-.984.589-2.664-.733-3.105l-11.25-3.75a1.875 1.875 0 00-2.372 2.372l3.75 11.25a1.876 1.876 0 003.105.733l2.424-2.424 2.424 2.424c.366.366.846.55 1.326.55a1.875 1.875 0 001.326-3.2l-2.424-2.426zm-5.582.279l-1.605-4.814 4.814 1.604-3.21 3.21z" fill="url(#paint4_linear)"/><path d="M28.25 22.5H17a1.875 1.875 0 000 3.75h11.25a1.875 1.875 0 000-3.75z" fill="url(#paint5_linear)"/><path d="M28.25 30H17a1.875 1.875 0 000 3.75h11.25a1.875 1.875 0 000-3.75z" fill="url(#paint6_linear)"/><defs><linearGradient id="paint0_linear" x1="32" y1="0" x2="15.808" y2="59.601" gradientUnits="userSpaceOnUse"><stop stop-color="#2E9ADB"/><stop offset="1" stop-color="#55B570"/></linearGradient><linearGradient id="paint1_linear" x1="17" y1="7.5" x2="16.051" y2="10.992" gradientUnits="userSpaceOnUse"><stop stop-color="#2E9ADB"/><stop offset="1" stop-color="#55B570"/></linearGradient><linearGradient id="paint2_linear" x1="24.5" y1="7.5" x2="23.551" y2="10.992" gradientUnits="userSpaceOnUse"><stop stop-color="#2E9ADB"/><stop offset="1" stop-color="#55B570"/></linearGradient><linearGradient id="paint3_linear" x1="32" y1="7.5" x2="31.051" y2="10.992" gradientUnits="userSpaceOnUse"><stop stop-color="#2E9ADB"/><stop offset="1" stop-color="#55B570"/></linearGradient><linearGradient id="paint4_linear" x1="41.375" y1="22.5" x2="37.58" y2="36.469" gradientUnits="userSpaceOnUse"><stop stop-color="#2E9ADB"/><stop offset="1" stop-color="#55B570"/></linearGradient><linearGradient id="paint5_linear" x1="22.625" y1="22.5" x2="22.372" y2="26.233" gradientUnits="userSpaceOnUse"><stop stop-color="#2E9ADB"/><stop offset="1" stop-color="#55B570"/></linearGradient><linearGradient id="paint6_linear" x1="22.625" y1="30" x2="22.372" y2="33.733" gradientUnits="userSpaceOnUse"><stop stop-color="#2E9ADB"/><stop offset="1" stop-color="#55B570"/></linearGradient></defs></svg>