<svg width="64" height="64" fill="none" xmlns="http://www.w3.org/2000/svg"><path d="M59.697 17a1.875 1.875 0 10-2.795 2.5 13.112 13.112 0 010 17.5 1.875 1.875 0 102.795 2.5 16.859 16.859 0 000-22.5z" fill="url(#paint0_linear)"/><path d="M54.422 22.393a1.875 1.875 0 00-2.911 2.364 5.464 5.464 0 011.225 3.485 5.551 5.551 0 01-1.224 3.505 1.875 1.875 0 102.928 2.343 9.265 9.265 0 002.046-5.848 9.3 9.3 0 00-2.063-5.849z" fill="url(#paint1_linear)"/><path d="M16.691 39.647c.772-.69.838-1.876.148-2.647a13.112 13.112 0 010-17.5 1.875 1.875 0 00-2.795-2.5 16.859 16.859 0 000 22.5c.69.772 1.875.837 2.647.147z" fill="url(#paint2_linear)"/><path d="M19.317 34.107a1.875 1.875 0 102.911-2.364 5.464 5.464 0 01-1.224-3.485c0-1.292.423-2.503 1.224-3.505A1.875 1.875 0 0019.3 22.41a9.265 9.265 0 00-2.046 5.848 9.3 9.3 0 002.063 5.849z" fill="url(#paint3_linear)"/><path d="M49.375 38.875h-1.306a21.93 21.93 0 01-1.819-8.715v-1.91c0-4.527-3.226-8.315-7.5-9.186V5.625A5.631 5.631 0 0033.125 0h-27.5A5.631 5.631 0 000 5.625v52.75A5.631 5.631 0 005.625 64h27.5a5.631 5.631 0 005.625-5.625v-8.572A5.634 5.634 0 0042.5 44.5v-1.875h6.875a1.875 1.875 0 000-3.75zM24.273 3.75l-1.25 3.75h-7.297l-1.25-3.75h9.797zM35 58.375a1.877 1.877 0 01-1.875 1.875h-27.5a1.877 1.877 0 01-1.875-1.875V5.625c0-1.034.841-1.875 1.875-1.875h4.899l2.072 6.218a1.875 1.875 0 001.779 1.282h10c.807 0 1.523-.516 1.779-1.282l2.073-6.218h4.898c1.034 0 1.875.841 1.875 1.875v13.439c-4.274.87-7.5 4.659-7.5 9.186v1.91a21.93 21.93 0 01-1.82 8.715h-1.305a1.875 1.875 0 000 3.75h6.875V44.5A5.634 5.634 0 0035 49.803v8.572zM38.75 44.5a1.877 1.877 0 01-1.875 1.875A1.877 1.877 0 0135 44.5v-1.875h3.75V44.5zm-9.034-5.625a25.69 25.69 0 001.534-8.715v-1.91a5.631 5.631 0 015.625-5.625A5.631 5.631 0 0142.5 28.25v1.91c0 2.962.526 5.927 1.534 8.715H29.716z" fill="url(#paint4_linear)"/><path d="M23.125 52.75h-7.5a1.875 1.875 0 000 3.75h7.5a1.875 1.875 0 000-3.75z" fill="url(#paint5_linear)"/><defs><linearGradient id="paint0_linear" x1="60.212" y1="16.375" x2="48.488" y2="30.14" gradientUnits="userSpaceOnUse"><stop stop-color="#2E9ADB"/><stop offset="1" stop-color="#55B570"/></linearGradient><linearGradient id="paint1_linear" x1="53.789" y1="21.7" x2="47.772" y2="30.825" gradientUnits="userSpaceOnUse"><stop stop-color="#2E9ADB"/><stop offset="1" stop-color="#55B570"/></linearGradient><linearGradient id="paint2_linear" x1="13.528" y1="16.375" x2="1.805" y2="30.139" gradientUnits="userSpaceOnUse"><stop stop-color="#2E9ADB"/><stop offset="1" stop-color="#55B570"/></linearGradient><linearGradient id="paint3_linear" x1="19.951" y1="21.707" x2="13.934" y2="30.832" gradientUnits="userSpaceOnUse"><stop stop-color="#2E9ADB"/><stop offset="1" stop-color="#55B570"/></linearGradient><linearGradient id="paint4_linear" x1="25.625" y1="0" x2="6.154" y2="57.394" gradientUnits="userSpaceOnUse"><stop stop-color="#2E9ADB"/><stop offset="1" stop-color="#55B570"/></linearGradient><linearGradient id="paint5_linear" x1="19.375" y1="52.75" x2="19.038" y2="56.469" gradientUnits="userSpaceOnUse"><stop stop-color="#2E9ADB"/><stop offset="1" stop-color="#55B570"/></linearGradient></defs></svg>