<svg width="84" height="48" fill="none" xmlns="http://www.w3.org/2000/svg"><path d="M76.038.409c-.17.048-.316.264-.316.432 0 .168-.22.36-.487.432-.268.072-.658.432-.877.816-.243.36-.876 1.056-1.436 1.512-1.486 1.2-1.826 2.04-1.826 4.368v1.944l-3.433 3.408-3.41 3.408-1.168-.12c-.657-.048-1.607.024-2.094.192-.998.336-2.8 1.8-2.8 2.28 0 .168-.122.36-.268.408-.17.048-.292.744-.292 1.752-.024 1.464.073 1.824.658 2.712.9 1.32 2.02 1.968 3.652 2.136 1.12.12 1.558.048 2.63-.48 1.801-.888 2.629-2.256 2.629-4.368v-1.536l3.482-3.36 3.457-3.384h1.704c2.727 0 3.239-.24 5.893-2.76 1.85-1.8 2.313-2.328 2.07-2.568-.196-.192-1.437-.336-3.337-.432-1.85-.072-3.14-.24-3.31-.408-.196-.192-.293-1.32-.317-3.336C76.817.48 76.72.12 76.038.409z" fill="url(#paint0_linear)"/><path d="M58.8 5.16c-.925.192-2.41.696-3.287 1.104-.877.408-1.85.864-2.191 1.008-.536.264-2.07 1.56-3.726 3.216-.779.768-2.191 3.024-2.41 3.84-.097.36.049.84.39 1.32.413.624.73.816 1.485.864 1.314.12 2.02-.336 2.727-1.752 1.996-3.864 7.961-6.36 12.904-5.424 1.607.312 2.751-.6 2.751-2.16 0-.912-.34-1.44-1.29-1.92-.804-.432-5.405-.48-7.353-.096z" fill="url(#paint1_linear)"/><path d="M28.146 11.616c-1.144.888-1.85 3.288-1.85 6.288 0 2.064-.05 2.232-.755 3.216-1.096 1.488-1.948 2.16-2.654 2.088-.609-.048-.609-.096-.682-2.448-.049-1.32.049-3.432.195-4.704.292-2.592.122-3.336-.901-3.792-1.169-.528-2.435-.24-3.287.792-.244.288-.536.648-.682.816-.146.168-.195.408-.122.528.098.144.074.24-.048.216-.487-.072-.78.048-.901.432-.097.24-.633.936-1.193 1.56-.804.84-1.193 1.104-1.558 1.008-.439-.12-.512-.384-.609-2.376-.146-2.496-.511-3.36-1.534-3.624-.34-.072-.925-.024-1.29.12-.633.264-1.948 1.944-2.338 3-.073.24-.511.984-.925 1.632-.633.96-.9 1.152-1.388 1.104-.584-.072-.657-.192-.828-1.752-.316-2.52-.34-2.664-1.022-2.952-1.12-.504-2.581.48-3.044 2.04-.438 1.368-.56 5.568-.292 9.288.244 3.576.438 4.032 1.777 4.344.999.24 2.021-.84 3.166-3.336.511-1.152.95-2.304.95-2.544 0-.216.218-.696.486-1.032.268-.336.487-.72.487-.84 0-.528 1.558-.72 1.875-.24.097.168.146 1.512.122 3-.122 3.72.34 4.608 2.41 4.632.95 0 2.289-1.752 2.727-3.624.098-.36.487-1.344.877-2.232.827-1.776 1.582-2.232 2.459-1.464.414.384.487.744.487 2.76 0 1.272.121 2.64.243 3.024.365.936 1.29 1.584 2.581 1.728 1.315.144 2.727-.624 4.066-2.208.511-.6 1.071-1.104 1.266-1.104.195 0 .73.576 1.193 1.296 1.705 2.64 3.677 3.264 5.698 1.824.56-.408 1.022-.816 1.022-.912 0-.12.244-.456.512-.744.633-.648.95-.36.95.864 0 .792-.317 1.224-1.56 2.112-2.872 2.064-5.234 4.584-6.256 6.72-.828 1.68-.828 5.016-.025 6.624.95 1.872 3.214 3.864 5.576 4.872l1.022.456 1.12-.648c1.413-.816 2.167-1.992 2.679-4.104.243-.936.511-2.064.633-2.52.097-.456.316-1.92.462-3.24.17-1.32.39-2.928.512-3.552.121-.624.219-1.608.219-2.184 0-1.368.925-2.28 3.335-3.264 2.046-.84 2.727-.816 3.41.144.243.336.608.816.803 1.032.194.24.39.576.438.768.268 1.152 3.092 3.864 5.454 5.256 3.384 1.992 7.11 2.712 11.248 2.184 1.948-.264 3.97-.84 4.286-1.224.073-.072.633-.384 1.241-.648.61-.288 1.242-.672 1.413-.888.194-.216.462-.384.608-.384.463 0 3.19-2.904 4.237-4.488.511-.816 1.266-2.448 1.655-3.6.633-1.92.706-2.424.706-5.424v-3.336l-.681-.576c-.95-.792-1.705-.936-2.484-.432-.73.456-1.436 1.656-1.193 2.04.073.144.146 1.272.122 2.52 0 2.376-.511 4.344-1.51 5.976-.243.384-.56.936-.681 1.2-.293.672-2.922 3.096-3.847 3.552-2.386 1.224-3.53 1.488-6.647 1.464-2.898 0-3.117-.024-4.675-.744-3.19-1.464-5.04-3.24-6.33-6.072-.341-.72-.853-1.896-1.17-2.568-.316-.744-.778-1.32-1.046-1.416-1.29-.408-3.604 0-6.452 1.152-1.096.432-1.34.456-1.534.168-.292-.432-.292-3.936 0-4.872.706-2.256 1.071-4.272 1.071-5.544-.024-1.272-.097-1.488-.706-1.968-.9-.72-2.41-.624-3.068.168-.487.576-1.095 2.472-1.315 3.96-.073.528-.219 1.176-.34 1.44-.122.264-.341 1.08-.512 1.8-.511 2.304-1.412 3.48-2.97 3.84-1.364.288-1.802-.36-2.118-3.024-.244-2.208-.122-3.144.56-4.2.194-.312.413-1.128.462-1.824.17-1.704-.438-2.448-2.118-2.616-.852-.072-1.34 0-1.68.24zm7.012 24.288c-.024 2.616-.365 4.488-.852 4.944-.584.552-.755.552-1.364-.12-1.07-1.152-1.217-2.856-.365-4.248.585-.936 2.07-2.424 2.362-2.328.146.048.243.792.22 1.752z" fill="url(#paint2_linear)"/><defs><linearGradient id="paint0_linear" x1="70.746" y1="26.139" x2="64.308" y2="2.048" gradientUnits="userSpaceOnUse"><stop stop-color="#2E9ADB"/><stop offset="1" stop-color="#55B570"/></linearGradient><linearGradient id="paint1_linear" x1="57.3" y1="16.531" x2="55.531" y2="5.176" gradientUnits="userSpaceOnUse"><stop stop-color="#2E9ADB"/><stop offset="1" stop-color="#55B570"/></linearGradient><linearGradient id="paint2_linear" x1="39.653" y1="48.072" x2="35.071" y2="11.926" gradientUnits="userSpaceOnUse"><stop stop-color="#2E9ADB"/><stop offset="1" stop-color="#55B570"/></linearGradient></defs></svg>