<svg width="64" height="64" fill="none" xmlns="http://www.w3.org/2000/svg"><g clip-path="url(#clip0)"><path d="M36.32 63.875H26.053a3.111 3.111 0 01-3.11-3.105V37.653H16.95a3.111 3.111 0 01-3.11-3.104v-9.906a3.11 3.11 0 013.11-3.104h5.991v-4.96c0-4.92 1.548-9.104 4.475-12.101 2.94-3.012 7.05-4.603 11.883-4.603l7.831.013a3.112 3.112 0 013.106 3.104v9.198a3.11 3.11 0 01-3.11 3.104l-5.273.002c-1.608 0-2.018.322-2.105.42-.145.164-.316.626-.316 1.903v3.92h7.298c.55 0 1.082.134 1.539.39.987.55 1.6 1.59 1.6 2.715l-.004 9.905a3.11 3.11 0 01-3.11 3.104h-7.323V60.77a3.111 3.111 0 01-3.111 3.105zm-9.62-3.752h8.972v-24.15c0-1.142.932-2.072 2.077-2.072h8.357l.003-8.61h-8.36a2.077 2.077 0 01-2.077-2.073v-5.599c0-1.466.15-3.133 1.258-4.386 1.34-1.514 3.45-1.69 4.922-1.69l4.624-.001V3.639l-7.18-.012C31.528 3.627 26.7 8.59 26.7 16.578v6.64a2.077 2.077 0 01-2.076 2.073H17.6v8.61h7.025c1.145 0 2.076.93 2.076 2.073v24.15zM47.123 3.64z" fill="url(#paint0_linear)"/></g><defs><linearGradient id="paint0_linear" x1="32.038" y1="-.125" x2="7.145" y2="51.984" gradientUnits="userSpaceOnUse"><stop stop-color="#2E9ADB"/><stop offset="1" stop-color="#55B570"/></linearGradient><clipPath id="clip0"><path fill="#fff" d="M0 0h64v64H0z"/></clipPath></defs></svg>