<svg width="64" height="64" fill="none" xmlns="http://www.w3.org/2000/svg"><path d="M43.25 25.669a16.859 16.859 0 00-22.5 0 1.875 1.875 0 102.5 2.795 13.112 13.112 0 0117.5 0 1.875 1.875 0 102.5-2.795z" fill="url(#paint0_linear)"/><path d="M37.84 30.925a9.265 9.265 0 00-5.848-2.046 9.3 9.3 0 00-5.849 2.063 1.875 1.875 0 102.364 2.911 5.464 5.464 0 013.485-1.224c1.292 0 2.503.423 3.505 1.224a1.875 1.875 0 002.342-2.928z" fill="url(#paint1_linear)"/><path d="M32 40.125a1.875 1.875 0 100-3.75 1.875 1.875 0 000 3.75z" fill="url(#paint2_linear)"/><path d="M45.75 0h-27.5a5.631 5.631 0 00-5.625 5.625v52.75A5.631 5.631 0 0018.25 64h27.5a5.631 5.631 0 005.625-5.625V5.625A5.631 5.631 0 0045.75 0zm-8.852 3.75l-1.25 3.75h-7.297l-1.25-3.75h9.797zm10.727 54.625a1.877 1.877 0 01-1.875 1.875h-27.5a1.877 1.877 0 01-1.875-1.875V5.625c0-1.034.841-1.875 1.875-1.875h4.898l2.073 6.218A1.875 1.875 0 0027 11.25h10c.807 0 1.523-.516 1.779-1.282L40.85 3.75h4.899c1.034 0 1.875.841 1.875 1.875v52.75z" fill="url(#paint3_linear)"/><path d="M35.75 52.75h-7.5a1.875 1.875 0 000 3.75h7.5a1.875 1.875 0 000-3.75z" fill="url(#paint4_linear)"/><defs><linearGradient id="paint0_linear" x1="32" y1="21.366" x2="31.349" y2="28.885" gradientUnits="userSpaceOnUse"><stop stop-color="#2E9ADB"/><stop offset="1" stop-color="#55B570"/></linearGradient><linearGradient id="paint1_linear" x1="31.997" y1="28.879" x2="31.4" y2="34.206" gradientUnits="userSpaceOnUse"><stop stop-color="#2E9ADB"/><stop offset="1" stop-color="#55B570"/></linearGradient><linearGradient id="paint2_linear" x1="32" y1="36.375" x2="31.051" y2="39.867" gradientUnits="userSpaceOnUse"><stop stop-color="#2E9ADB"/><stop offset="1" stop-color="#55B570"/></linearGradient><linearGradient id="paint3_linear" x1="32" y1="0" x2="8.096" y2="53.275" gradientUnits="userSpaceOnUse"><stop stop-color="#2E9ADB"/><stop offset="1" stop-color="#55B570"/></linearGradient><linearGradient id="paint4_linear" x1="32" y1="52.75" x2="31.663" y2="56.469" gradientUnits="userSpaceOnUse"><stop stop-color="#2E9ADB"/><stop offset="1" stop-color="#55B570"/></linearGradient></defs></svg>