<svg width="64" height="64" fill="none" xmlns="http://www.w3.org/2000/svg"><path d="M45.75 0h-27.5a5.631 5.631 0 00-5.625 5.625v52.75A5.631 5.631 0 0018.25 64h27.5a5.631 5.631 0 005.625-5.625V5.625A5.631 5.631 0 0045.75 0zm-8.852 3.75l-1.25 3.75h-7.297l-1.25-3.75h9.797zm10.727 54.625a1.877 1.877 0 01-1.875 1.875h-27.5a1.877 1.877 0 01-1.875-1.875V5.625c0-1.034.841-1.875 1.875-1.875h4.898l2.073 6.218A1.875 1.875 0 0027 11.25h10c.807 0 1.523-.516 1.779-1.282L40.85 3.75h4.899c1.034 0 1.875.841 1.875 1.875v52.75z" fill="url(#paint0_linear)"/><path d="M35.75 52.75h-7.5a1.875 1.875 0 000 3.75h7.5a1.875 1.875 0 000-3.75z" fill="url(#paint1_linear)"/><path d="M41.526 39.106l-4.598-4.598a8.081 8.081 0 00-6.847-12.373 8.081 8.081 0 104.616 14.714l4.543 4.544c.316.315.73.472 1.143.472a1.617 1.617 0 001.143-2.759zM30.081 35.68a5.463 5.463 0 110-10.925 5.463 5.463 0 010 10.925z" fill="url(#paint2_linear)"/><defs><linearGradient id="paint0_linear" x1="32" y1="0" x2="8.096" y2="53.275" gradientUnits="userSpaceOnUse"><stop stop-color="#2E9ADB"/><stop offset="1" stop-color="#55B570"/></linearGradient><linearGradient id="paint1_linear" x1="32" y1="52.75" x2="31.663" y2="56.469" gradientUnits="userSpaceOnUse"><stop stop-color="#2E9ADB"/><stop offset="1" stop-color="#55B570"/></linearGradient><linearGradient id="paint2_linear" x1="32" y1="22.135" x2="27.067" y2="40.543" gradientUnits="userSpaceOnUse"><stop stop-color="#2E9ADB"/><stop offset="1" stop-color="#55B570"/></linearGradient></defs></svg>