<svg width="65" height="65" fill="none" xmlns="http://www.w3.org/2000/svg"><path d="M63.096 30.596H58.88V24.34a8.019 8.019 0 00-8.024-8.023h-2.175V5.984A5.99 5.99 0 0042.7 0H14.142A5.982 5.982 0 008.16 5.984v14.413H5.984a5.981 5.981 0 00-3.107 11.096 5.946 5.946 0 00-.837 3.047 5.986 5.986 0 002.873 5.11 5.944 5.944 0 00-.834 3.049c0 2.293 1.257 4.126 2.875 5.114a5.97 5.97 0 001.204 7.539v3.664A5.99 5.99 0 0014.144 65H42.7a5.941 5.941 0 004.23-1.752 5.941 5.941 0 001.753-4.232v-2.175h2.175c3.769 0 6.938-2.611 7.796-6.119h4.443A1.904 1.904 0 0065 48.818V32.5a1.904 1.904 0 00-1.904-1.904zM20.126 3.809h16.589v2.175a2.175 2.175 0 01-2.175 2.175H22.302a2.175 2.175 0 01-2.176-2.175V3.809zM3.81 26.38c0-1.186.958-2.175 2.175-2.175H8.16v4.35H5.984c-1.2 0-2.175-.976-2.175-2.175zm2.04 8.159c0-1.2.975-2.175 2.174-2.175h6.12c1.199 0 2.175.975 2.175 2.175 0 1.2-.976 2.175-2.175 2.175h-6.12a2.178 2.178 0 01-2.175-2.175zm2.04 8.159c0-1.186.958-2.176 2.174-2.176h4.08a2.175 2.175 0 010 4.35h-4.08A2.175 2.175 0 017.888 42.7zm2.039 8.158c0-1.199.975-2.175 2.175-2.175 1.2 0 2.175.976 2.175 2.175 0 1.2-.976 2.175-2.175 2.175-1.2 0-2.175-.975-2.175-2.175zm34.946 8.16A2.175 2.175 0 0142.7 61.19H14.143c-1.2 0-2.176-.975-2.176-2.175v-2.178c.046 0 .09.003.136.003a5.99 5.99 0 005.984-5.983 5.946 5.946 0 00-.836-3.045c1.165-.71 2.875-2.386 2.875-5.114 0-1.53-.571-2.972-1.61-4.081a5.96 5.96 0 001.61-4.078 5.99 5.99 0 00-5.983-5.984h-2.176V5.984c0-1.185.958-2.175 2.176-2.175h2.175v2.175a5.98 5.98 0 005.983 5.983H34.54a5.98 5.98 0 005.983-5.983V3.809h2.175c1.2 0 2.176.975 2.176 2.175v10.334H34.54a1.904 1.904 0 00-1.904 1.904c0 6.673 5.429 12.103 12.102 12.103h.136v28.691zM61.19 46.912h-4.214a1.904 1.904 0 00-1.905 1.905 4.22 4.22 0 01-4.215 4.215h-2.175V28.42a1.904 1.904 0 00-1.904-1.905h-2.04c-3.918 0-7.21-2.731-8.074-6.39h14.193a4.212 4.212 0 014.215 4.215v8.16c0 1.052.853 1.904 1.905 1.904h4.214v12.51z" fill="#2E9ADB"/><path d="M32.5 53.033h-8.159a1.904 1.904 0 000 3.808h8.16a1.904 1.904 0 000-3.808z" fill="#2E9ADB"/></svg>