<svg width="65" height="65" fill="none" xmlns="http://www.w3.org/2000/svg"><path d="M55.478 33.225h-6.362c-.866 0-1.705.137-2.502.387-1.574-3.56-4.788-6.005-8.49-6.005H26.876c-3.703 0-6.917 2.446-8.49 6.005a8.338 8.338 0 00-2.503-.387H9.521C4.271 33.225 0 38.14 0 44.178v11.7c0 3.623 2.563 6.57 5.713 6.57h53.574c3.15 0 5.713-2.947 5.713-6.57v-11.7c0-6.04-4.271-10.953-9.522-10.953zM17.355 38.56v19.508H5.713c-1.05 0-1.904-.983-1.904-2.19v-11.7c0-3.623 2.562-6.572 5.712-6.572h6.363a5 5 0 011.494.23c-.014.24-.023.48-.023.724zm26.481 19.508H21.164V38.56c0-3.624 2.563-6.572 5.713-6.572h11.246c3.15 0 5.713 2.948 5.713 6.572v19.508zm17.355-2.19c0 1.207-.854 2.19-1.904 2.19H47.645V38.56c0-.244-.01-.485-.023-.724a4.99 4.99 0 011.494-.23h6.362c3.15 0 5.713 2.948 5.713 6.572v11.7z" fill="#2E9ADB"/><path d="M12.703 14.509c-4.665 0-8.46 3.795-8.46 8.46 0 4.666 3.795 8.462 8.46 8.462 4.665 0 8.461-3.796 8.461-8.461 0-4.666-3.796-8.461-8.46-8.461zm0 13.113a4.658 4.658 0 01-4.652-4.652 4.658 4.658 0 014.652-4.653 4.658 4.658 0 014.652 4.653 4.658 4.658 0 01-4.652 4.652zM32.5 4c-6.233 0-11.304 5.07-11.304 11.304 0 6.232 5.071 11.303 11.304 11.303 6.233 0 11.304-5.07 11.304-11.303C43.804 9.07 38.733 4 32.5 4zm0 18.799c-4.133 0-7.495-3.363-7.495-7.495 0-4.133 3.362-7.495 7.495-7.495s7.495 3.362 7.495 7.495c0 4.132-3.362 7.495-7.495 7.495zm19.797-8.29c-4.665 0-8.46 3.795-8.46 8.46 0 4.666 3.795 8.462 8.46 8.462 4.666 0 8.461-3.796 8.461-8.461 0-4.666-3.795-8.461-8.46-8.461zm0 13.113a4.658 4.658 0 01-4.652-4.652 4.658 4.658 0 014.652-4.653 4.658 4.658 0 014.653 4.653 4.658 4.658 0 01-4.653 4.652z" fill="#2E9ADB"/></svg>