<svg width="65" height="65" fill="none" xmlns="http://www.w3.org/2000/svg"><path d="M32.665 0h-.055C14.7.01 0 14.505 0 32.373c0 4.37.87 8.624 2.587 12.647A33.091 33.091 0 0019.98 62.413 32.046 32.046 0 0032.625 65h.012C50.607 64.994 65 50.188 65 32.373 65 14.507 50.558.021 32.665.001zM26.32 4.5a37.726 37.726 0 00-7.9 10.734H9.587A28.903 28.903 0 0126.32 4.5zM7.146 19.017h9.647A39.5 39.5 0 0014.47 30.47H3.874a28.283 28.283 0 013.272-11.452zm.071 26.94a28.606 28.606 0 01-3.344-11.68h10.584a39.336 39.336 0 002.336 11.68H7.217zm2.448 3.809h8.755a37.722 37.722 0 007.891 10.726c-6.743-1.513-12.6-5.397-16.646-10.726zm8.606-15.489h12.451v11.68H20.9a35.025 35.025 0 01-2.629-11.68zm12.452 25.025a34.591 34.591 0 01-7.964-9.536h7.964v9.536zm0-28.833H18.284A35.013 35.013 0 0120.9 19.043h9.823v11.426zm0-15.235h-7.964a34.592 34.592 0 017.964-9.536v9.536zm27.16 3.809a28.356 28.356 0 013.243 11.426H50.784a39.335 39.335 0 00-2.323-11.426h9.422zm-2.419-3.809h-8.63A37.728 37.728 0 0038.95 4.515c6.7 1.52 12.512 5.401 16.513 10.72zM34.531 5.7a34.593 34.593 0 017.965 9.535h-7.965V5.7zm0 13.344h9.825A35.018 35.018 0 0146.97 30.47H34.531V19.043zm12.453 15.209a35.167 35.167 0 01-2.628 11.705h-9.825V34.252h12.453zM34.53 59.3v-9.56h7.965a34.7 34.7 0 01-7.965 9.56zm4.429 1.175c3.236-3.073 5.881-6.697 7.873-10.736h8.554c-3.997 5.31-9.774 9.211-16.427 10.736zm9.5-14.52a39.497 39.497 0 002.337-11.704h10.33a28.913 28.913 0 01-3.314 11.705H48.46z" fill="#2E9ADB"/></svg>