<svg width="65" height="65" fill="none" xmlns="http://www.w3.org/2000/svg"><path d="M63.097 61.148h-.606v-23.25c0-1.05-.852-1.903-1.903-1.903H48.844V1.95A1.903 1.903 0 0046.94.046H18.028c-1.05 0-1.903.852-1.903 1.903v12.467H4.381a1.903 1.903 0 00-1.903 1.903v44.829h-.575a1.903 1.903 0 000 3.806h61.194a1.903 1.903 0 100-3.806zM58.685 39.8v5.004h-9.841V39.8h9.841zm-42.56-2.02H6.284v-8.217h9.84v8.218h.001zm-9.841 3.807h9.84v8.218h-9.84v-8.218zm9.841-23.366v7.536H6.284v-7.536h9.841zm-9.841 35.39h9.84v7.536h-9.84v-7.536zM19.93 3.852h25.107v57.296h-4.03V50.474c0-1.05-.851-1.902-1.902-1.902H25.863a1.903 1.903 0 00-1.903 1.902v10.674h-4.029V3.852zm7.835 57.296v-8.77h9.437v8.77h-9.437zm21.078 0V48.61h9.841v12.537h-9.841z" fill="#2E9ADB"/><path d="M25.636 11.593h13.697a1.903 1.903 0 000-3.806H25.636a1.903 1.903 0 000 3.806zm0 8.049h13.697a1.903 1.903 0 100-3.806H25.636a1.903 1.903 0 000 3.806zm0 8.049h13.697a1.903 1.903 0 100-3.806H25.636a1.903 1.903 0 100 3.806zm0 8.049h13.697a1.903 1.903 0 100-3.806H25.636a1.903 1.903 0 100 3.806zm0 8.049h13.697a1.903 1.903 0 000-3.806H25.636a1.903 1.903 0 100 3.806z" fill="#2E9ADB"/></svg>