<svg width="20" height="20" fill="none" xmlns="http://www.w3.org/2000/svg"><g clip-path="url(#clip0)"><path d="M14.094.536a.618.618 0 00-.662-.533c-1.156.08-2.466.793-3.257 1.77-.861 1.06-1.255 2.36-1.052 3.475.052.29.3.504.594.514l.1.001c1.189 0 2.458-.665 3.258-1.715.817-1.065 1.188-2.344 1.02-3.512zM12.082 3.29h-.001c-.445.585-1.102 1.01-1.754 1.162.06-.716.43-1.415.818-1.891.424-.522 1.083-.961 1.728-1.176-.086.886-.556 1.6-.79 1.905z" fill="url(#paint0_linear)"/><path d="M18.495 14.142a.627.627 0 00-.353-.344c-1.27-.49-2.122-1.665-2.22-3.067-.097-1.377.562-2.6 1.763-3.27a.619.619 0 00.309-.422.627.627 0 00-.123-.51c-1.056-1.338-2.563-2.138-4.032-2.138-1.022 0-1.74.276-2.317.498-.445.172-.795.307-1.204.307-.457 0-.886-.157-1.382-.337-.602-.218-1.286-.466-2.148-.466-1.666 0-3.351 1.018-4.397 2.655-1.57 2.463-1.124 6.71 1.062 10.095.853 1.322 2.041 2.842 3.692 2.857h.033c.683 0 1.156-.215 1.573-.404.436-.197.848-.385 1.588-.39.702-.02 1.14.184 1.567.383.416.195.901.405 1.588.407 1.606-.012 2.797-1.523 3.751-3 .578-.895.8-1.36 1.244-2.362a.62.62 0 00.006-.492zm-2.299 2.176c-.727 1.127-1.693 2.42-2.712 2.43-.4-.01-.682-.12-1.048-.29-.483-.225-1.089-.486-2.104-.499-1.007.005-1.61.279-2.097.5-.379.17-.652.267-1.079.291-1.053-.01-1.97-1.225-2.653-2.285-2.168-3.36-2.165-7.012-1.06-8.745.819-1.28 2.1-2.077 3.343-2.077.643 0 1.168.191 1.725.393.556.2 1.131.41 1.809.41.64 0 1.155-.2 1.652-.39.53-.204 1.077-.415 1.869-.415.898 0 1.832.423 2.592 1.157-1.224.956-1.871 2.41-1.758 4.022.118 1.665 1.028 3.095 2.423 3.867a11.55 11.55 0 01-.901 1.631z" fill="url(#paint1_linear)"/></g><defs><linearGradient id="paint0_linear" x1="11.602" y1="0" x2="9.976" y2="5.26" gradientUnits="userSpaceOnUse"><stop stop-color="#2E9ADB"/><stop offset="1" stop-color="#55B570"/></linearGradient><linearGradient id="paint1_linear" x1="10" y1="4.391" x2="6.351" y2="19.094" gradientUnits="userSpaceOnUse"><stop stop-color="#2E9ADB"/><stop offset="1" stop-color="#55B570"/></linearGradient><clipPath id="clip0"><path fill="#fff" d="M0 0h20v20H0z"/></clipPath></defs></svg>