<svg width="19" height="19" fill="none" xmlns="http://www.w3.org/2000/svg"><path d="M18.209 9.5a8.558 8.558 0 00-.687-3.383 8.708 8.708 0 00-1.855-2.783 8.703 8.703 0 00-2.784-1.856A8.559 8.559 0 009.5.792c-.602 0-1.22.066-1.855.198A4.63 4.63 0 004.75 0C3.44 0 2.32.464 1.392 1.392.464 2.319 0 3.439 0 4.75c0 1.072.33 2.037.99 2.894A9.105 9.105 0 00.792 9.5c0 1.18.228 2.307.686 3.383a8.71 8.71 0 001.856 2.783 8.703 8.703 0 002.783 1.856 8.557 8.557 0 003.383.686c.602 0 1.22-.066 1.855-.198a4.63 4.63 0 002.895.99c1.311 0 2.43-.464 3.358-1.392C18.536 16.68 19 15.561 19 14.25c0-1.072-.33-2.037-.99-2.895a9.103 9.103 0 00.198-1.855zm-4.107 3.692a3.205 3.205 0 01-1.095 1.157c-.458.289-.963.51-1.515.662a6.504 6.504 0 01-1.732.229c-1.394 0-2.594-.27-3.6-.81-1.006-.54-1.51-1.19-1.51-1.95 0-.37.106-.68.317-.927.21-.247.52-.37.933-.37.24 0 .462.065.668.197.206.132.396.29.57.476.173.186.36.371.562.557.202.185.47.345.804.476a3.06 3.06 0 001.132.198c.536 0 .97-.105 1.299-.315.33-.21.495-.476.495-.798 0-.33-.132-.577-.396-.742-.182-.115-.643-.264-1.386-.446l-1.806-.445a7.58 7.58 0 01-1.274-.402 4.18 4.18 0 01-.99-.6 2.34 2.34 0 01-.692-.934c-.157-.375-.235-.814-.235-1.317 0-.602.138-1.132.415-1.59a2.991 2.991 0 011.1-1.076c.458-.26.95-.454 1.479-.582a6.924 6.924 0 011.632-.191c.792 0 1.542.095 2.252.284.709.19 1.294.468 1.756.835.462.367.693.778.693 1.231 0 .371-.118.689-.353.953-.235.263-.546.395-.934.395-.214 0-.412-.05-.593-.148a2.352 2.352 0 01-.495-.36 9.476 9.476 0 00-.47-.413 2.198 2.198 0 00-.668-.353 2.852 2.852 0 00-.953-.148c-1.187 0-1.78.317-1.78.952 0 .14.03.264.092.37.062.109.13.195.204.26.074.067.198.133.37.198.174.067.318.115.434.143.115.029.297.072.544.13l1.287.297c.403.09.764.185 1.082.284.317.1.658.24 1.02.42.363.182.664.384.904.607a2.721 2.721 0 01.84 1.979 3.25 3.25 0 01-.407 1.627z" fill="#2E9ADB"/></svg>