<svg width="100" height="100" fill="none" xmlns="http://www.w3.org/2000/svg"><path d="M97.07 7.217H84.238c.046-1.42.072-2.85.072-4.287A2.93 2.93 0 0081.38 0H18.62a2.93 2.93 0 00-2.93 2.93c0 1.436.026 2.866.072 4.287H2.93A2.93 2.93 0 000 10.147C0 23.274 3.43 35.66 9.66 45.021c6.158 9.255 14.36 14.564 23.221 15.08 2.009 2.186 4.132 3.968 6.344 5.328V78.45H34.31c-5.942 0-10.775 4.834-10.775 10.775v4.915h-.208a2.93 2.93 0 000 5.86h53.346a2.93 2.93 0 100-5.86h-.208v-4.915c0-5.941-4.833-10.775-10.775-10.775h-4.915V65.429c2.212-1.359 4.336-3.142 6.345-5.328 8.86-.516 17.062-5.825 23.22-15.08C96.57 35.66 100 23.274 100 10.147a2.93 2.93 0 00-2.93-2.93zM14.54 41.776c-5.14-7.723-8.16-17.822-8.62-28.7h10.17c1.056 13.372 4.195 25.732 9.1 35.542a60.359 60.359 0 002.447 4.43c-4.873-1.841-9.383-5.688-13.098-11.273zm56.067 47.449v4.916H29.395v-4.916a4.921 4.921 0 014.915-4.916h31.38a4.921 4.921 0 014.916 4.916zM54.916 78.45h-9.832V67.975c1.61.424 3.252.645 4.916.645 1.664 0 3.305-.221 4.916-.645V78.45zm1.814-17.445c-.132.054-.259.12-.38.192-2.07 1.03-4.199 1.563-6.35 1.563-2.15 0-4.278-.533-6.348-1.562a2.924 2.924 0 00-.383-.195c-2.298-1.215-4.52-3.049-6.622-5.459a2.96 2.96 0 00-.373-.436c-2.087-2.477-4.05-5.525-5.843-9.11-5.384-10.768-8.493-24.926-8.847-40.139h56.832c-.354 15.213-3.464 29.372-8.847 40.139-1.793 3.585-3.756 6.633-5.842 9.11-.139.133-.265.28-.375.437-2.102 2.41-4.325 4.244-6.622 5.46zm28.731-19.23c-3.715 5.585-8.225 9.432-13.098 11.272a60.359 60.359 0 002.446-4.429c4.906-9.81 8.044-22.17 9.101-35.541h10.17c-.46 10.877-3.48 20.977-8.618 28.699z" fill="#fff"/></svg>