<svg width="100" height="100" fill="none" xmlns="http://www.w3.org/2000/svg"><g clip-path="url(#clip0)"><path d="M3.01 99.805L50 100a2.923 2.923 0 002.924-2.924V81.927c1.093.216 2.103.334 2.924.334 4.837 0 8.772-3.935 8.772-8.772s-3.935-8.772-8.772-8.772c-.821 0-1.83.119-2.924.334v-12.03H68.79c2.016 0 3.432-1.999 2.756-3.902-.707-1.99-1.077-3.956-1.077-4.87a2.927 2.927 0 012.924-2.924 2.927 2.927 0 012.924 2.924c0 .914-.37 2.88-1.076 4.87-.675 1.9.735 3.902 2.755 3.902H96.98a2.924 2.924 0 002.924-2.924V3.12A2.924 2.924 0 0096.985.195L3.022 0A2.925 2.925 0 00.098 2.924v93.957a2.924 2.924 0 002.912 2.924zm49.914-77.703V5.953l41.13.085v41.136H81.83c.215-1.093.334-2.102.334-2.924 0-4.836-3.935-8.771-8.772-8.771s-8.772 3.935-8.772 8.771c0 .822.119 1.831.334 2.924h-12.03V31.308c0-2.016-1.999-3.431-3.903-2.755-1.99.707-3.955 1.077-4.869 1.077a2.927 2.927 0 01-2.924-2.924 2.927 2.927 0 012.924-2.924c.914 0 2.88.37 4.87 1.076 1.9.675 3.902-.735 3.902-2.756zM5.946 5.855l41.13.085v12.329c-1.093-.216-2.102-.334-2.924-.334-4.837 0-8.772 3.935-8.772 8.772s3.935 8.772 8.772 8.772c.822 0 1.83-.119 2.924-.334v12.03h-12.03c.216-1.094.334-2.103.334-2.925 0-4.836-3.935-8.771-8.772-8.771s-8.772 3.935-8.772 8.771c0 .812.116 1.807.327 2.885l-12.217-.126V5.854zm0 47.003l16.03.164c2.03.022 3.465-1.987 2.785-3.902-.707-1.99-1.077-3.956-1.077-4.87a2.927 2.927 0 012.924-2.924 2.927 2.927 0 012.924 2.924c0 .914-.37 2.88-1.076 4.87-.675 1.9.735 3.902 2.756 3.902h15.864v15.866c0 2.016 2 3.431 3.903 2.755 1.99-.707 3.955-1.077 4.87-1.077a2.927 2.927 0 012.923 2.924 2.927 2.927 0 01-2.924 2.924c-.914 0-2.88-.37-4.87-1.076-1.898-.675-3.902.735-3.902 2.755V94.14l-41.13-.17V52.856z" fill="#fff"/></g><defs><clipPath id="clip0"><path fill="#fff" d="M0 0h100v100H0z"/></clipPath></defs></svg>