<svg width="100" height="100" fill="none" xmlns="http://www.w3.org/2000/svg"><g clip-path="url(#clip0)" fill="#fff"><path d="M6.594 9.375v81.25a3.125 3.125 0 003.125 3.125h21.875V100H9.719a9.375 9.375 0 01-9.375-9.375V9.375A9.375 9.375 0 019.719 0h50a3.125 3.125 0 012.218.906l18.75 18.75c.585.59.912 1.388.907 2.22v12.5h-6.25V25L56.594 6.25H9.719a3.125 3.125 0 00-3.125 3.125z"/><path d="M40.969 50h-12.5a6.25 6.25 0 00-6.25 6.25v25h6.25v-9.375h12.5v9.375h6.25v-25a6.25 6.25 0 00-6.25-6.25zm0 15.625h-12.5V56.25h12.5v9.375zm25-15.625h-12.5a3.125 3.125 0 00-3.125 3.125V81.25h6.25v-9.375h9.375a6.25 6.25 0 006.25-6.25V56.25a6.25 6.25 0 00-6.25-6.25zm0 15.625h-9.375V56.25h9.375v9.375zm22.937-2.906l7.406-7.375-4.437-4.438L81.594 61.22V50h-6.25v31.25h6.25V70.031l2.875-2.844L94.78 80.094l4.875-3.906-10.75-13.47z"/></g><defs><clipPath id="clip0"><path fill="#fff" d="M0 0h100v100H0z"/></clipPath></defs></svg>