<svg width="100" height="100" fill="none" xmlns="http://www.w3.org/2000/svg"><path d="M94.546 5.454A18.499 18.499 0 0081.38 0H18.62C8.353 0 0 8.354 0 18.62v62.76C0 91.647 8.353 100 18.62 100h62.76C91.647 100 100 91.647 100 81.38V18.62c0-4.974-1.937-9.65-5.454-13.166zm-.405 75.926c0 7.036-5.725 12.76-12.76 12.76H18.62c-7.037 0-12.761-5.724-12.762-12.76V18.62c0-7.036 5.725-12.76 12.761-12.76h62.76c3.409 0 6.613 1.327 9.023 3.737a12.677 12.677 0 013.738 9.023v62.76z" fill="#fff"/><path d="M67.604 42.479a2.93 2.93 0 00-4.143 0L52.93 53.01V21.758a2.93 2.93 0 00-5.86 0V53.01L36.54 42.479a2.93 2.93 0 10-4.143 4.144l15.532 15.532a2.929 2.929 0 004.144 0l15.532-15.533a2.93 2.93 0 000-4.143zm10.638 32.834H21.758a2.93 2.93 0 000 5.859h56.484a2.93 2.93 0 000-5.86z" fill="#fff"/></svg>