<svg width="100" height="100" fill="none" xmlns="http://www.w3.org/2000/svg"><path d="M85.356 14.645C75.912 5.2 63.356 0 50 0 36.645 0 24.088 5.201 14.645 14.645 5.2 24.089 0 36.645 0 50c0 13.355 5.201 25.912 14.645 35.356C24.089 94.799 36.645 100 50 100c13.355 0 25.912-5.201 35.356-14.644C94.799 75.912 100 63.356 100 50c0-13.355-5.201-25.912-14.644-35.355zm8.687 32.425h-5.77c-.564-8.174-3.74-15.84-9.142-22.058l4.083-4.083A43.751 43.751 0 0194.043 47.07zm-69.01 32.04c6.208 5.29 13.864 8.462 22.037 9.124v5.809a43.753 43.753 0 01-26.14-10.829l4.104-4.104zm27.897 9.163c8.173-.564 15.84-3.74 22.058-9.141l4.083 4.082A43.751 43.751 0 0152.93 94.043v-5.77zM72.918 73.05c-6.066 6.104-14.093 9.456-22.63 9.456l-.264-.001c-18.08-.146-32.672-14.717-32.529-32.481.07-8.73 3.475-16.925 9.586-23.074 6.067-6.104 14.094-9.456 22.631-9.456l.264.001c8.73.07 16.925 3.475 23.074 9.586 6.167 6.13 9.525 14.26 9.455 22.895-.07 8.73-3.475 16.925-9.587 23.074zm2.049-52.16c-6.208-5.29-13.864-8.462-22.037-9.124V5.957a43.753 43.753 0 0126.14 10.829l-4.104 4.104zM47.07 11.727c-8.173.564-15.84 3.74-22.058 9.142l-4.083-4.083A43.752 43.752 0 0147.07 5.957v5.77zM16.786 20.93l4.104 4.104c-5.29 6.208-8.462 13.864-9.124 22.037H5.957A43.75 43.75 0 0116.786 20.93zm-10.829 32h5.77c.564 8.175 3.74 15.841 9.142 22.06l-4.083 4.082A43.751 43.751 0 015.957 52.93zm77.257 26.142l-4.104-4.104c5.29-6.208 8.462-13.864 9.124-22.037h5.809A43.75 43.75 0 0183.214 79.07z" fill="#fff"/><path d="M54.686 38.81c-1.058-.848-2.153-1.725-3.314-2.681L50 35l-1.372 1.129c-1.161.956-2.256 1.833-3.315 2.682C39.326 43.609 35 47.076 35 52.29c0 4.81 3.626 8.598 8.304 8.738V65H56.16v-3.972c.089.003.178.004.268.004 4.806 0 8.571-3.84 8.571-8.742 0-5.214-4.326-8.681-10.314-13.48zM56.43 56.8a3.78 3.78 0 01-1.544-.309l-3.01-1.315v5.592H47.59v-5.056l-2.808.906c-.374.12-.781.182-1.21.182-2.783 0-4.285-2.324-4.285-4.51 0-3.198 3.472-5.98 8.728-10.193.646-.518 1.305-1.046 1.986-1.597.681.551 1.34 1.08 1.986 1.597 5.256 4.212 8.729 6.995 8.729 10.193 0 2.186-1.503 4.51-4.286 4.51z" fill="#fff"/></svg>