<svg width="100" height="100" fill="none" xmlns="http://www.w3.org/2000/svg"><g clip-path="url(#clip0)" fill="#fff"><path d="M53.138 100h-6.276c-5.076 0-9.206-4.13-9.206-9.206v-2.123a40.372 40.372 0 01-6.269-2.602l-1.505 1.505c-3.644 3.648-9.482 3.541-13.02-.002l-4.436-4.435c-3.545-3.541-3.647-9.377.001-13.02l1.504-1.504a40.379 40.379 0 01-2.602-6.27H9.206C4.13 62.344 0 58.215 0 53.139v-6.276c0-5.076 4.13-9.206 9.206-9.206h2.123a40.387 40.387 0 012.602-6.269l-1.505-1.504c-3.645-3.642-3.545-9.478.002-13.02l4.436-4.437c3.546-3.551 9.383-3.64 13.02.002l1.503 1.503a40.414 40.414 0 016.27-2.602V9.206C37.656 4.13 41.785 0 46.861 0h6.276c5.076 0 9.206 4.13 9.206 9.206v2.123c2.158.69 4.254 1.56 6.269 2.602l1.504-1.505c3.645-3.648 9.482-3.541 13.02.002l4.437 4.435c3.544 3.541 3.646 9.377-.001 13.02l-1.504 1.504a40.383 40.383 0 012.602 6.27h2.123c5.076 0 9.206 4.129 9.206 9.205v6.276c0 5.076-4.13 9.206-9.206 9.206H88.67a40.387 40.387 0 01-2.602 6.269l1.505 1.504c3.645 3.642 3.545 9.478-.001 13.02l-4.437 4.437c-3.546 3.551-9.383 3.64-13.02-.001l-1.503-1.504a40.414 40.414 0 01-6.27 2.602v2.124c0 5.075-4.129 9.205-9.205 9.205zM32.367 79.916a34.531 34.531 0 008.951 3.716 2.93 2.93 0 012.198 2.837v4.325a3.35 3.35 0 003.346 3.347h6.276a3.35 3.35 0 003.347-3.347V86.47a2.93 2.93 0 012.197-2.837 34.531 34.531 0 008.952-3.716 2.93 2.93 0 013.563.45l3.064 3.064a3.345 3.345 0 004.731.002l4.439-4.439a3.346 3.346 0 00.001-4.731l-3.065-3.066a2.93 2.93 0 01-.45-3.563 34.525 34.525 0 003.715-8.951 2.93 2.93 0 012.837-2.197h4.325a3.35 3.35 0 003.347-3.347v-6.276a3.35 3.35 0 00-3.347-3.346H86.47a2.93 2.93 0 01-2.837-2.198 34.532 34.532 0 00-3.716-8.951 2.93 2.93 0 01.45-3.563l3.065-3.064a3.345 3.345 0 00.001-4.732l-4.438-4.438a3.346 3.346 0 00-4.732-.001l-3.065 3.065a2.93 2.93 0 01-3.563.45 34.533 34.533 0 00-8.952-3.715 2.93 2.93 0 01-2.197-2.837V9.206a3.35 3.35 0 00-3.347-3.347h-6.276a3.35 3.35 0 00-3.346 3.347v4.325a2.93 2.93 0 01-2.198 2.837 34.531 34.531 0 00-8.951 3.716 2.93 2.93 0 01-3.563-.45L25.74 16.57a3.345 3.345 0 00-4.732-.002l-4.438 4.439a3.346 3.346 0 00-.002 4.731l3.066 3.066a2.93 2.93 0 01.45 3.563 34.525 34.525 0 00-3.716 8.951 2.93 2.93 0 01-2.836 2.197H9.206a3.35 3.35 0 00-3.347 3.347v6.276a3.35 3.35 0 003.347 3.346h4.325a2.93 2.93 0 012.837 2.198 34.532 34.532 0 003.716 8.951 2.93 2.93 0 01-.45 3.563l-3.065 3.064a3.345 3.345 0 000 4.732l4.438 4.438a3.346 3.346 0 004.731.001l3.065-3.065c.697-.697 2.147-1.288 3.564-.45z"/><path d="M50 71.758c-11.998 0-21.758-9.76-21.758-21.758 0-11.997 9.76-21.758 21.758-21.758S71.758 38.002 71.758 50c0 11.997-9.76 21.758-21.758 21.758zm0-37.656c-8.767 0-15.898 7.132-15.898 15.898S41.234 65.898 50 65.898 65.898 58.766 65.898 50 58.767 34.102 50 34.102z"/></g><defs><clipPath id="clip0"><path fill="#fff" d="M0 0h100v100H0z"/></clipPath></defs></svg>