<svg width="55" height="65" fill="none" xmlns="http://www.w3.org/2000/svg"><path d="M23.691 53.574h-7.617a1.904 1.904 0 000 3.809h7.617a1.904 1.904 0 000-3.809z" fill="#2E9ADB"/><path d="M39.56 15.468V5.713A5.72 5.72 0 0033.849 0H5.918A5.72 5.72 0 00.205 5.713v53.574A5.72 5.72 0 005.918 65h27.93a5.72 5.72 0 005.712-5.713v-9.755c8.558-.95 15.235-8.225 15.235-17.032S48.118 16.418 39.56 15.468zM24.858 3.808l-1.27 3.81h-7.41l-1.27-3.81h9.95zm10.894 55.48c0 1.05-.854 1.903-1.904 1.903H5.918a1.906 1.906 0 01-1.904-1.904V5.713c0-1.05.854-1.904 1.904-1.904h4.975l2.105 6.315c.26.777.987 1.302 1.807 1.302H24.96c.82 0 1.547-.525 1.806-1.302l2.106-6.315h4.975c1.05 0 1.904.854 1.904 1.904v9.755c-8.557.95-15.234 8.225-15.234 17.032s6.677 16.082 15.234 17.032v9.755zm1.904-13.458c-7.35 0-13.33-5.98-13.33-13.33s5.98-13.33 13.33-13.33 13.33 5.98 13.33 13.33-5.98 13.33-13.33 13.33z" fill="#2E9ADB"/><path d="M44.938 30.84L34.78 25.127c-1.27-.714-2.838.204-2.838 1.66v11.426c0 1.456 1.569 2.373 2.838 1.66l10.157-5.713c1.294-.728 1.294-2.592 0-3.32zm-9.186 4.117v-4.914L40.12 32.5l-4.368 2.457z" fill="#2E9ADB"/></svg>