<svg width="65" height="65" fill="none" xmlns="http://www.w3.org/2000/svg"><path d="M44.01 42.496l-3.512-1.17V38.39a16.246 16.246 0 007.672-10.105h2.662a5.94 5.94 0 004.23-1.753 5.943 5.943 0 001.754-4.23v-4.08a5.943 5.943 0 00-1.752-4.23 5.941 5.941 0 00-4.232-1.754h-2.175v-.137C48.657 5.428 43.229 0 36.557 0h-8.164c-6.672 0-12.1 5.428-12.1 12.1v.138h-2.176c-1.6 0-3.102.623-4.23 1.753a5.942 5.942 0 00-1.754 4.231V30.46c0 5.55 4.515 10.063 10.064 10.063a1.904 1.904 0 000-3.808 6.261 6.261 0 01-6.255-6.255v-2.582a5.975 5.975 0 002.175.407h2.656a16.075 16.075 0 004.259 7.5 16.26 16.26 0 003.42 2.617v2.924c-.865.288-2.098.7-3.512 1.17a21.685 21.685 0 00-14.846 20.6c0 1.051.852 1.904 1.904 1.904h48.953a1.905 1.905 0 001.905-1.905c0-9.36-5.967-17.638-14.847-20.599zm8.36-25.812c.41.411.637.957.637 1.538v4.08a2.16 2.16 0 01-.638 1.538 2.16 2.16 0 01-1.537.637h-2.175v-8.43h2.175a2.16 2.16 0 011.538.637zM28.393 3.81h8.163c4.572 0 8.292 3.72 8.292 8.292v4.216h-8.044a8.853 8.853 0 01-8.598-6.704 1.905 1.905 0 00-2.702-1.253l-5.334 2.667c.528-4.067 4.015-7.218 8.223-7.218zm-12.1 20.668h-2.176a2.157 2.157 0 01-1.538-.638 2.158 2.158 0 01-.637-1.537v-4.08c0-.58.226-1.127.638-1.539a2.16 2.16 0 011.537-.636h2.175v8.43zm3.808-.134V15.32l5.178-2.59a12.655 12.655 0 0011.525 7.396h8.044v4.215c0 6.823-5.55 12.374-12.375 12.374a12.292 12.292 0 01-8.749-3.624 12.29 12.29 0 01-3.623-8.748zm12.374 16.18c1.457 0 2.87-.195 4.215-.558v2.733a4.22 4.22 0 01-4.215 4.215 4.22 4.22 0 01-4.215-4.215v-2.727c1.357.364 2.771.552 4.215.552zM10.002 61.191A17.881 17.881 0 0122.144 46.11l2.71-.903c1.056 3.2 4.072 5.516 7.62 5.516 3.549 0 6.565-2.317 7.62-5.516l2.711.903a17.88 17.88 0 0112.141 15.082H10.002z" fill="#2E9ADB"/></svg>