<svg width="55" height="65" fill="none" xmlns="http://www.w3.org/2000/svg"><path d="M53.356 10.525L28.474.195a2.539 2.539 0 00-1.948 0L1.644 10.524A2.539 2.539 0 00.078 12.87v12.56a42.52 42.52 0 0026.463 39.383 2.54 2.54 0 001.918 0A42.521 42.521 0 0054.922 25.43V12.87a2.539 2.539 0 00-1.566-2.345zM49.844 25.43c0 14.7-8.633 28.233-22.344 34.274C14.155 53.824 5.156 40.529 5.156 25.43V14.565L27.5 5.288l22.344 9.277V25.43zm-25.15 8.558l10.913-10.913a2.539 2.539 0 113.59 3.59L26.49 39.375a2.54 2.54 0 01-3.59 0l-7.097-7.096a2.539 2.539 0 113.591-3.591l5.3 5.3z" fill="#2E9ADB"/></svg>