<svg width="65" height="65" fill="none" xmlns="http://www.w3.org/2000/svg"><g clip-path="url(#clip0)"><path d="M64.218 23.316L52.61 6.286a4.497 4.497 0 00-3.72-1.966H16.11c-1.49 0-2.88.735-3.719 1.966L.78 23.318a4.507 4.507 0 00.413 5.588L29.189 59.23a4.5 4.5 0 006.618.003l27.998-30.325a4.506 4.506 0 00.413-5.59zM17.681 28l9.92 23.895L5.541 28h12.14zM35.245 8.128l7.766 16.063H21.988l7.766-16.063h5.491zM43.195 28L32.498 53.76 21.805 28h21.39zm4.123 0h12.14l-22.06 23.895L47.318 28zm2.144-19.57l10.743 15.761H47.242L39.476 8.13h9.413a.69.69 0 01.573.302zm-33.925 0a.691.691 0 01.573-.301h9.413L17.758 24.19H4.793L15.537 8.43z" fill="#2E9ADB"/></g><defs><clipPath id="clip0"><path fill="#fff" d="M0 0h65v65H0z"/></clipPath></defs></svg>