<svg width="65" height="65" fill="none" xmlns="http://www.w3.org/2000/svg"><g clip-path="url(#clip0)" fill="#2E9ADB"><path d="M58.595 11.51c-.35-4.522-4.139-8.094-8.748-8.094H8.776C3.938 3.416 0 7.353 0 12.193v40.613c0 4.84 3.938 8.778 8.778 8.778h47.444c4.84 0 8.778-3.938 8.778-8.778V19.96c0-4.018-2.715-7.411-6.405-8.45zM8.778 7.516h41.069a4.684 4.684 0 014.565 3.665H8.778A8.723 8.723 0 004.1 12.537v-.344a4.683 4.683 0 014.677-4.677zm47.444 49.967H8.778A4.683 4.683 0 014.1 52.806V19.96a4.683 4.683 0 014.677-4.677h47.444a4.683 4.683 0 014.678 4.677v7.155H47.826c-5.181 0-9.396 4.215-9.396 9.396 0 5.18 4.215 9.396 9.396 9.396h13.073v6.9a4.683 4.683 0 01-4.677 4.677zM60.9 41.805H47.826a5.301 5.301 0 01-5.295-5.295 5.301 5.301 0 015.295-5.295h13.073v10.59z"/><path d="M48.587 38.8a2.134 2.134 0 100-4.269 2.134 2.134 0 000 4.27z"/></g><defs><clipPath id="clip0"><path fill="#fff" d="M0 0h65v65H0z"/></clipPath></defs></svg>